<?xml version="1.0" encoding="UTF-8"?>
<svg version="1.1" xmlns="http://www.w3.org/2000/svg" width="1080" height="1080">
<path d="M0 0 C356.4 0 712.8 0 1080 0 C1080 356.4 1080 712.8 1080 1080 C723.6 1080 367.2 1080 0 1080 C0 723.6 0 367.2 0 0 Z " fill="#FEFEFE" transform="translate(0,0)"/>
<path d="M0 0 C1.83473877 0.00797607 1.83473877 0.00797607 3.70654297 0.01611328 C29.40909555 0.28409555 29.40909555 0.28409555 33.375 4.25 C35.11729677 25.30275259 24.01817172 52.68679889 11.375 69.25 C8.90744186 71.96849625 6.39874872 74.1753555 3.375 76.25 C2.78589844 76.67925781 2.19679688 77.10851562 1.58984375 77.55078125 C-4.60478006 81.3780329 -11.58976145 81.02728678 -18.625 80.25 C-27.40273813 78.07692992 -34.52236166 72.61679175 -41.625 67.25 C-42.58738036 69.28976214 -43.54472527 71.33190046 -44.5 73.375 C-45.03367187 74.51195312 -45.56734375 75.64890625 -46.1171875 76.8203125 C-47.85177127 80.62258285 -47.85177127 80.62258285 -49.625 86.25 C-60.02 86.745 -60.02 86.745 -70.625 87.25 C-70.851875 84.81625 -71.07875 82.3825 -71.3125 79.875 C-73.19097489 64.40401763 -81.61002428 56.59143534 -92.625 46.25 C-91.0490874 51.96118077 -89.41684818 57.21079648 -86.4375 62.375 C-85.90769531 63.30570313 -85.37789063 64.23640625 -84.83203125 65.1953125 C-84.43371094 65.87335938 -84.03539062 66.55140625 -83.625 67.25 C-88.2154904 69.90486887 -92.44794862 69.75206699 -97.625 69.25 C-104.14421817 67.20475508 -108.44253424 61.92682926 -111.8515625 56.18359375 C-118.17735904 43.07325969 -118.82341398 28.51376039 -118.625 14.25 C-103.60207046 13.80910968 -88.12885753 13.65770242 -74.625 21.25 C-73.5525 21.848125 -72.48 22.44625 -71.375 23.0625 C-67.19244988 26.3895285 -64.31832929 30.17001214 -62.625 35.25 C-61.75915786 43.04257927 -64.59658987 49.15486769 -67.625 56.25 C-67.1196875 56.80429687 -66.614375 57.35859375 -66.09375 57.9296875 C-65.4440625 58.65414062 -64.794375 59.37859375 -64.125 60.125 C-63.4753125 60.84429688 -62.825625 61.56359375 -62.15625 62.3046875 C-60.625 64.25 -60.625 64.25 -60.625 66.25 C-59.696875 65.26 -59.696875 65.26 -58.75 64.25 C-50.72440176 56.29072902 -41.15350682 49.95470412 -31.9921875 43.3984375 C-27.82354399 40.40963398 -23.7148471 37.34550737 -19.625 34.25 C-29.45669352 34.42964888 -37.54950177 36.5403901 -46.625 40.25 C-47.429375 40.57871094 -48.23375 40.90742188 -49.0625 41.24609375 C-50.5932162 41.89109312 -52.11159618 42.56536494 -53.625 43.25 C-55.79499417 36.7400175 -55.66563701 28.81184833 -53.0625 22.4375 C-48.23793837 13.163431 -41.32828683 7.32461699 -31.4375 4.125 C-20.94964047 0.93246917 -10.93247691 -0.08542168 0 0 Z " fill="#3B8479" transform="translate(450.625,467.75)"/>
<path d="M0 0 C4.06675788 2.96195533 6.60031031 5.46350998 8.96875 9.89453125 C10.26522747 12.07175627 10.26522747 12.07175627 12.53125 13.45703125 C16.24973635 13.99483292 19.97024456 13.70461955 23.71020508 13.53320312 C30.42892403 13.27529212 35.14664262 14.14537147 40.53125 18.45703125 C45.63179884 23.31552014 50.41304716 27.91094617 50.65625 35.20703125 C50.615 36.27953125 50.57375 37.35203125 50.53125 38.45703125 C47.95251218 39.74640016 46.10559134 39.58582315 43.21704102 39.59074402 C41.52600754 39.59714149 41.52600754 39.59714149 39.80081177 39.60366821 C37.93681229 39.60298843 37.93681229 39.60298843 36.03515625 39.60229492 C34.07906937 39.60733284 34.07906937 39.60733284 32.08346558 39.61247253 C28.50091468 39.62132207 24.91838765 39.62365102 21.33582687 39.62428832 C18.3485479 39.62523654 15.36127452 39.62891374 12.37399769 39.63246042 C5.32908152 39.64060821 -1.71582185 39.64304431 -8.76074219 39.64233398 C-16.03733199 39.64173275 -23.31384776 39.6522929 -30.59041882 39.66807765 C-36.830782 39.68113412 -43.07112094 39.6865187 -49.31149769 39.68587857 C-53.04174716 39.68562307 -56.77193084 39.68850288 -60.50216675 39.69905663 C-64.65904847 39.71049616 -68.81576322 39.70600245 -72.97265625 39.69995117 C-74.21532257 39.70557068 -75.45798889 39.71119019 -76.73831177 39.71697998 C-77.86566742 39.71278549 -78.99302307 39.708591 -80.15454102 39.70426941 C-81.13826187 39.70481418 -82.12198273 39.70535894 -83.13551331 39.70592022 C-85.46875 39.45703125 -85.46875 39.45703125 -87.46875 37.45703125 C-87.82408112 31.53484585 -86.29693965 26.99041373 -82.46875 22.45703125 C-77.25139907 17.17494892 -72.0458236 13.66455076 -64.49609375 13.2265625 C-63.13279743 13.23937111 -61.76951481 13.2537206 -60.40625 13.26953125 C-55.08404782 13.21378047 -55.08404782 13.21378047 -50.44921875 10.8671875 C-49.06281745 8.84111257 -49.06281745 8.84111257 -47.87109375 6.65625 C-44.14152079 0.80736538 -36.590296 -3.24469603 -30.0078125 -5.10546875 C-19.20607362 -6.96669145 -9.34316565 -5.83947853 0 0 Z " fill="#3B8479" transform="translate(412.46875,572.54296875)"/>
</svg>
