<svg xmlns="http://www.w3.org/2000/svg" version="1.1" xmlnsXlink="http://www.w3.org/1999/xlink" xmlnsSvgjs="http://svgjs.dev/svgjs" width="1500" height="500" viewBox="0 0 1500 500"><g transform="matrix(1,0,0,1,1.6309211735067493,-0.15842609512660033)"><svg viewBox="0 0 396 132" data-background-color="#ffffff" preserveAspectRatio="xMidYMid meet" height="500" width="1500" xmlns="http://www.w3.org/2000/svg" xmlnsXlink="http://www.w3.org/1999/xlink"><g id="tight-bounds" transform="matrix(1,0,0,1,0.2628427310640973,0.041824489113423624)"><svg viewBox="0 0 395.52 131.91635102177315" height="131.91635102177315" width="395.52"><g><svg viewBox="0 0 660.3021526934878 220.22818202656399" height="131.91635102177315" width="395.52"><g transform="matrix(1,0,0,1,264.7821526934878,67.01188516963893)"><svg viewBox="0 0 395.52 86.20441168728613" height="86.20441168728613" width="395.52"><g id="textblocktransform"><svg viewBox="0 0 395.52 86.20441168728613" height="86.20441168728613" width="395.52" id="textblock"><g><svg viewBox="0 0 395.52 86.20441168728613" height="86.20441168728613" width="395.52"><g transform="matrix(1,0,0,1,0,0)"><svg width="395.52" viewBox="0.75 -36.25 189.93 41.4" height="86.20441168728613" data-palette-color="#8abe53"><path d="M28.4-33.95Q28.8-33.25 28.93-32.48 29.05-31.7 29.05-30.95L29.05-30.95Q29.05-28.45 27.8-26.18 26.55-23.9 24.75-22.03 22.95-20.15 20.93-18.8 18.9-17.45 17.35-16.85L17.35-16.85Q17.8-14.9 18.8-12.35 19.8-9.8 21.15-7.15 22.5-4.5 24.1-1.93 25.7 0.65 27.35 2.6L27.35 2.6 22.55 5.15Q20 1.9 18.25-0.95 16.5-3.8 15.18-6.58 13.85-9.35 12.8-12.2 11.75-15.05 10.65-18.3L10.65-18.3 10.8-18.65Q12.9-19.4 15.15-20.8 17.4-22.2 19.25-23.88 21.1-25.55 22.3-27.43 23.5-29.3 23.5-31.05L23.5-31.05Q23.5-31.5 23.4-31.95 23.3-32.4 23.2-32.8L23.2-32.8 28.4-33.95ZM0.75 0L7.25-33.45 13.1-33.45 6.6 0 0.75 0ZM40.35-36.25L38.8-27.9Q38.5-26.4 38.12-24.9 37.75-23.4 37.32-22.1 36.9-20.8 36.52-19.73 36.15-18.65 35.95-18.05L35.95-18.05Q37.4-21.5 39.82-23.2 42.25-24.9 45.25-24.9L45.25-24.9Q48.55-24.9 50.07-23.25 51.6-21.6 51.6-18.8L51.6-18.8Q51.6-16.85 51.1-14.95 50.6-13.05 49.97-11.3 49.35-9.55 48.85-7.93 48.35-6.3 48.35-4.8L48.35-4.8Q48.35-3.8 48.42-2.48 48.5-1.15 48.75 0L48.75 0 43.2 0Q43.05-0.85 43.02-1.53 43-2.2 43-3L43-3Q43-4.95 43.45-6.85 43.9-8.75 44.45-10.6 45-12.45 45.45-14.18 45.9-15.9 45.9-17.55L45.9-17.55Q45.9-18.75 45.32-19.58 44.75-20.4 43.2-20.4L43.2-20.4Q41.85-20.4 40.55-19.23 39.25-18.05 38.12-16.23 37-14.4 36.17-12.2 35.35-10 34.95-8L34.95-8 33.4 0 27.8 0 34.7-35.25 40.35-36.25ZM55.09-7.8Q55.09-11.35 56.02-14.5 56.95-17.65 58.72-20 60.49-22.35 63.09-23.73 65.69-25.1 69.05-25.1L69.05-25.1Q72.94-25.1 74.59-23.65 76.25-22.2 76.25-19.7L76.25-19.7Q76.25-17.5 75.12-15.7 74-13.9 71.97-12.55 69.94-11.2 67.14-10.38 64.34-9.55 60.99-9.4L60.99-9.4Q60.95-8.95 60.95-8.5 60.95-8.05 60.95-7.65L60.95-7.65Q60.95-5.3 61.95-4.4 62.95-3.5 64.59-3.5L64.59-3.5Q65.59-3.5 66.87-3.8 68.14-4.1 69.34-4.5L69.34-4.5Q70.69-4.95 72.19-5.55L72.19-5.55 73.34-1.95Q71.84-1.25 70.19-0.7L70.19-0.7Q68.8-0.2 67.02 0.18 65.25 0.55 63.45 0.55L63.45 0.55Q61.09 0.55 59.49-0.15 57.89-0.85 56.92-2.02 55.95-3.2 55.52-4.7 55.09-6.2 55.09-7.8L55.09-7.8ZM67.89-21.25Q66.75-21.25 65.75-20.58 64.75-19.9 63.97-18.75 63.2-17.6 62.59-16.1 61.99-14.6 61.59-13L61.59-13Q63.84-13.15 65.52-13.73 67.19-14.3 68.32-15.15 69.44-16 70.02-16.95 70.59-17.9 70.59-18.8L70.59-18.8Q70.59-19.95 69.97-20.6 69.34-21.25 67.89-21.25L67.89-21.25ZM77.99-20.45L77.99-24.5 82.99-24.5 85.19-30.75 89.94-31.8 88.49-24.5 94.09-24.5 93.39-20.45 87.69-20.45 84.89-5.7Q84.84-5.45 84.82-5.28 84.79-5.1 84.79-4.95L84.79-4.95Q84.79-4.25 85.19-3.98 85.59-3.7 86.69-3.7L86.69-3.7Q87.39-3.7 88.12-3.83 88.84-3.95 89.49-4.1L89.49-4.1Q90.24-4.3 90.94-4.55L90.94-4.55 90.94-0.8Q90.09-0.45 89.09-0.2L89.09-0.2Q88.24 0.05 87.07 0.23 85.89 0.4 84.59 0.4L84.59 0.4Q81.59 0.4 80.32-0.68 79.04-1.75 79.04-3.8L79.04-3.8Q79.04-4.45 79.19-5.2L79.19-5.2 82.24-20.45 77.99-20.45ZM108.49-34.1L108.49-34.1Q110.74-34.1 112.19-33.55 113.64-33 114.54-32.13 115.44-31.25 115.92-30.2 116.39-29.15 116.64-28.15L116.64-28.15 112.44-26.2Q112.24-26.65 111.99-27.25 111.74-27.85 111.34-28.43 110.94-29 110.27-29.38 109.59-29.75 108.49-29.75L108.49-29.75Q107.49-29.75 106.62-29.43 105.74-29.1 105.09-28.55 104.44-28 104.07-27.25 103.69-26.5 103.69-25.6L103.69-25.6Q103.69-24.7 103.92-24 104.14-23.3 104.57-22.75 104.99-22.2 105.54-21.75 106.09-21.3 106.79-20.8L106.79-20.8 110.79-17.85Q112.59-16.5 113.89-14.55 115.19-12.6 115.19-9.65L115.19-9.65Q115.19-7.1 114.12-5.18 113.04-3.25 111.29-1.93 109.54-0.6 107.32 0.05 105.09 0.7 102.74 0.7L102.74 0.7Q100.89 0.7 99.34 0.4 97.79 0.1 96.52-0.33 95.24-0.75 94.22-1.25 93.19-1.75 92.39-2.2L92.39-2.2 94.89-6.6Q96.59-5.6 98.52-4.65 100.44-3.7 102.54-3.7L102.54-3.7Q105.34-3.7 107.07-4.98 108.79-6.25 108.79-8.95L108.79-8.95Q108.79-10.7 107.99-11.8 107.19-12.9 105.64-14.05L105.64-14.05 101.89-16.85Q99.69-18.45 98.47-20.2 97.24-21.95 97.24-24.9L97.24-24.9Q97.24-27.1 98.09-28.8 98.94-30.5 100.47-31.68 101.99-32.85 104.04-33.48 106.09-34.1 108.49-34.1ZM118.64-7.8Q118.64-11.35 119.56-14.5 120.49-17.65 122.26-20 124.04-22.35 126.64-23.73 129.24-25.1 132.59-25.1L132.59-25.1Q136.49-25.1 138.14-23.65 139.79-22.2 139.79-19.7L139.79-19.7Q139.79-17.5 138.66-15.7 137.54-13.9 135.51-12.55 133.49-11.2 130.69-10.38 127.89-9.55 124.54-9.4L124.54-9.4Q124.49-8.95 124.49-8.5 124.49-8.05 124.49-7.65L124.49-7.65Q124.49-5.3 125.49-4.4 126.49-3.5 128.14-3.5L128.14-3.5Q129.14-3.5 130.41-3.8 131.69-4.1 132.89-4.5L132.89-4.5Q134.24-4.95 135.74-5.55L135.74-5.55 136.89-1.95Q135.39-1.25 133.74-0.7L133.74-0.7Q132.34-0.2 130.56 0.18 128.79 0.55 126.99 0.55L126.99 0.55Q124.64 0.55 123.04-0.15 121.44-0.85 120.46-2.02 119.49-3.2 119.06-4.7 118.64-6.2 118.64-7.8L118.64-7.8ZM131.44-21.25Q130.29-21.25 129.29-20.58 128.29-19.9 127.51-18.75 126.74-17.6 126.14-16.1 125.54-14.6 125.14-13L125.14-13Q127.39-13.15 129.06-13.73 130.74-14.3 131.86-15.15 132.99-16 133.56-16.95 134.14-17.9 134.14-18.8L134.14-18.8Q134.14-19.95 133.51-20.6 132.89-21.25 131.44-21.25L131.44-21.25ZM159.04-23.65L163.84-24.85Q164.39-23.75 164.59-22.38 164.79-21 164.79-19.8L164.79-19.8Q164.79-17.4 164.29-14.95 163.79-12.5 162.86-10.23 161.94-7.95 160.61-6 159.29-4.05 157.64-2.65L157.64-2.65Q155.74-1.05 153.66-0.33 151.59 0.4 148.49 0.4L148.49 0.4Q145.34 0.4 143.69-0.98 142.04-2.35 142.04-5.3L142.04-5.3Q142.04-5.65 142.09-6.23 142.14-6.8 142.21-7.4 142.29-8 142.36-8.55 142.44-9.1 142.49-9.45L142.49-9.45 145.39-24.5 150.84-24.5 147.99-9.6Q147.94-9.35 147.89-8.93 147.84-8.5 147.79-8.05 147.74-7.6 147.69-7.2 147.64-6.8 147.64-6.6L147.64-6.6Q147.64-5.2 148.34-4.35 149.04-3.5 150.39-3.5L150.39-3.5Q152.09-3.5 153.71-5.15 155.34-6.8 156.59-9.28 157.84-11.75 158.59-14.68 159.34-17.6 159.34-20.15L159.34-20.15Q159.34-20.8 159.26-21.95 159.19-23.1 159.04-23.65L159.04-23.65ZM176.03-3.7Q177.28-3.7 178.53-5.1 179.78-6.5 180.83-8.53 181.88-10.55 182.66-12.88 183.43-15.2 183.83-17.1L183.83-17.1 184.53-20.55Q183.93-20.85 183.16-20.95 182.38-21.05 181.68-21.05L181.68-21.05Q179.43-21.05 177.86-19.78 176.28-18.5 175.31-16.53 174.33-14.55 173.91-12.18 173.48-9.8 173.48-7.65L173.48-7.65Q173.48-5.45 174.11-4.58 174.73-3.7 176.03-3.7L176.03-3.7ZM174.18 0.4Q172.38 0.4 171.13-0.3 169.88-1 169.08-2.18 168.28-3.35 167.91-4.83 167.53-6.3 167.53-7.85L167.53-7.85Q167.53-11.4 168.46-14.5 169.38-17.6 171.18-19.93 172.98-22.25 175.58-23.58 178.18-24.9 181.58-24.9L181.58-24.9Q182.43-24.9 183.98-24.73 185.53-24.55 187.53-23.7L187.53-23.7 190.68-23.5 188.43-11.85Q187.93-9.2 187.93-7.2L187.93-7.2Q187.93-4.75 188.56-3.43 189.18-2.1 189.73-1.3L189.73-1.3 185.23 0.5Q184.48-0.35 184.01-1.6 183.53-2.85 183.53-4.45L183.53-4.45Q183.53-5.1 183.63-6.13 183.73-7.15 183.88-8.45L183.88-8.45 183.03-6.45Q182.18-4.5 181.18-3.18 180.18-1.85 179.06-1.05 177.93-0.25 176.71 0.08 175.48 0.4 174.18 0.4L174.18 0.4Z" opacity="1" transform="matrix(1,0,0,1,0,0)" fill="#8abe53" class="wordmark-text-0" data-fill-palette-color="primary" id="text-0"></path></svg></g></svg></g></svg></g></svg></g><g><svg viewBox="0 0 244.43135999999998 220.22818202656399" height="220.22818202656399" width="244.43135999999998"><g><svg xmlns="http://www.w3.org/2000/svg" data-name="Layer 1" viewBox="1.9690299589967748 6.727456071546466 96.0536596720773 86.542589488435" x="0" y="0" height="220.22818202656399" width="244.43135999999998" class="icon-icon-0" data-fill-palette-color="accent" id="icon-0"><path d="M98 10.51C91.58 49.44 78.4 56.37 67.88 54.76a23.62 23.62 0 0 1-6.74-2.19 28.59 28.59 0 0 1-8.23-6.14 35 35 0 0 0-5.16 12.24c-0.43-0.08-0.86-0.15-1.3-0.2a30.35 30.35 0 0 0-3.93-0.26 29.92 29.92 0 0 0-7.77 1c0.07-0.2 0.13-0.41 0.2-0.61A10 10 0 0 0 35.5 55a21.52 21.52 0 0 0-6.42-13.87L21.6 33.7a0.3 0.3 0 0 0-0.51 0.21 0.32 0.32 0 0 0 0 0.08 36.35 36.35 0 0 0 6.4 13.1C20 49.9 6.82 49.94 6.42 16.11h0a1.31 1.31 0 0 1 1.32-1.31C34 15.1 39.84 23.07 39.84 30.14a15.68 15.68 0 0 1-0.76 4.65 18.8 18.8 0 0 1-2.7 5.35 26.41 26.41 0 0 1 5.37 6.54 39.67 39.67 0 0 1 6.46-6.22l6.2-4.58h0l12.31-9a0.45 0.45 0 0 0-0.19-0.81h-0.12A54.72 54.72 0 0 0 45.5 32.55C43 20.69 45.94 1.14 96.36 8.24h0A2 2 0 0 1 98 10.51Zm-96 81A2.34 2.34 0 0 0 4.3 93.19l78.93 0.08h0a2.22 2.22 0 0 0 2.17-2.75A17.43 17.43 0 0 0 70.8 77.6a17.63 17.63 0 0 0-2.28-0.15 17.36 17.36 0 0 0-6.17 1.13 22 22 0 0 0-39.2-0.79c-0.48-0.1-1-0.2-1.45-0.26a21.82 21.82 0 0 0-2.84-0.19C10.58 77.34 3.3 82.17 2 90.48A2.36 2.36 0 0 0 2.06 91.51Z" fill="#398378" data-fill-palette-color="accent"></path></svg></g></svg></g></svg></g><defs></defs></svg><rect width="395.52" height="131.91635102177315" fill="none" stroke="none" visibility="hidden"></rect></g></svg></g></svg>